<svg width="1440" height="544" viewBox="0 0 1440 544" fill="none" xmlns="http://www.w3.org/2000/svg">
<g clip-path="url(#clip0_212_16580)" filter="url(#filter0_f_212_16580)">
<path opacity="0.15" d="M1377.76 237.88C1409.45 274.97 1435.16 339.451 1387.79 384.973C1382.9 389.666 1337.07 432.248 1268.14 426.96C1184.19 420.52 1166.98 350.812 1074.32 332.716C973.986 313.119 915.098 379.425 866.098 359.056C808.156 334.97 801.043 205.071 905.917 149.396C1032.26 82.3255 1292.53 138.151 1377.76 237.88Z" fill="#EBC136"/>
<path opacity="0.15" d="M588.036 429.639C617.416 410.569 649.43 372.148 629.547 333.285C627.497 329.278 607.914 292.654 561.963 283.834C505.994 273.09 478.241 316.52 413.857 311.996C344.134 307.096 321.73 252.301 285.11 257.114C241.808 262.806 206.28 348.21 261.031 404.149C326.989 471.538 509.038 480.917 588.036 429.639Z" fill="#EBC136"/>
<path opacity="0.15" d="M760.49 321.89C745.935 300.799 731.064 260.221 743.817 222.859C745.131 219.007 757.599 183.857 782.53 178.297C812.896 171.526 825.22 216.799 859.713 216.823C897.066 216.849 912.052 163.774 931.257 171.155C953.965 179.883 968.071 267.57 935.818 319.508C896.964 382.075 799.626 378.602 760.49 321.89Z" fill="#EBC136"/>
<path opacity="0.15" d="M749.038 274.802C764.944 264.124 782.289 242.633 771.557 220.936C770.451 218.699 759.881 198.254 735.027 193.363C704.756 187.407 689.713 211.693 654.886 209.218C617.169 206.538 605.085 175.943 585.271 178.661C561.841 181.876 542.566 229.62 572.149 260.828C607.787 298.423 706.267 303.514 749.038 274.802Z" fill="#EBC136"/>
<path opacity="0.15" d="M1433.97 248.365C1451.12 232.046 1469.98 199.494 1458.87 167.192C1457.72 163.861 1446.76 133.43 1420.29 126.595C1388.06 118.269 1371.62 154.965 1334.47 151.946C1294.23 148.678 1281.81 103.066 1260.61 107.534C1235.54 112.818 1214.21 184.751 1245.3 230.934C1282.77 286.569 1387.84 292.244 1433.97 248.365Z" fill="#8047F8"/>
<path opacity="0.15" d="M1445.3 377.852C1458.64 388.804 1473.25 410.725 1464.44 432.622C1463.53 434.88 1454.85 455.511 1434.15 460.261C1408.94 466.047 1396.24 441.312 1367.2 443.533C1335.76 445.938 1325.88 476.841 1309.34 473.922C1289.78 470.471 1273.39 421.932 1297.86 390.552C1327.33 352.75 1409.44 348.404 1445.3 377.852Z" fill="#8047F8"/>
<path opacity="0.15" d="M311.561 136.891C323.45 158.616 335.203 200.056 323.628 237.491C322.435 241.351 311.148 276.558 289.919 281.502C264.062 287.524 254.563 241.405 225.353 240.442C193.72 239.4 179.928 292.665 163.817 284.678C144.767 275.234 134.639 186.175 163.03 134.53C197.232 72.3152 279.594 78.4762 311.561 136.891Z" fill="#EBC136"/>
<path opacity="0.15" d="M918.38 432.947C893.896 413.726 870.099 375.18 895.13 336.528C897.711 332.543 922.094 296.123 966.705 287.62C1021.04 277.262 1040.02 320.78 1101.24 316.683C1167.54 312.246 1197.55 257.712 1231.16 262.753C1270.91 268.713 1290.33 354.166 1229.75 409.631C1156.77 476.449 984.214 484.627 918.38 432.947Z" fill="#EBC136"/>
<path opacity="0.15" d="M848.78 399.538C869.25 380.513 890.706 343.904 874.36 310.187C872.675 306.71 856.655 274.989 822.778 269.962C781.515 263.84 763.402 304.687 716.313 304.695C665.318 304.704 646.37 256.808 619.942 263.46C588.693 271.327 566.941 350.444 609.493 397.321C660.756 453.792 793.739 450.695 848.78 399.538Z" fill="#8047F8"/>
<path opacity="0.15" d="M893.754 141.004C932.106 151.666 972.833 171.465 943.755 188.257C940.758 189.989 912.218 205.762 849.904 207.009C774.004 208.528 739.308 186.67 652.47 184.784C558.429 182.742 525.002 206.767 476.056 202.269C418.178 196.95 375.561 155.145 452.55 132.591C545.296 105.42 790.632 112.335 893.754 141.004Z" fill="#8047F8"/>
<path opacity="0.15" d="M262.569 382.866C280.622 360.714 299.656 318.381 285.567 279.978C284.114 276.018 270.297 239.899 240.665 234.685C204.571 228.335 188.437 275.475 147.2 276.25C102.544 277.089 86.2706 222.467 63.0833 230.526C35.665 240.056 16.0878 331.145 53.038 384.214C97.5512 448.144 214.026 442.431 262.569 382.866Z" fill="#8047F8"/>
<ellipse cx="197.175" cy="223" rx="47.2917" ry="50" fill="#D9D9D9"/>
</g>
<defs>
<filter id="filter0_f_212_16580" x="-82" y="-160" width="1682" height="864" filterUnits="userSpaceOnUse" color-interpolation-filters="sRGB">
<feFlood flood-opacity="0" result="BackgroundImageFix"/>
<feBlend mode="normal" in="SourceGraphic" in2="BackgroundImageFix" result="shape"/>
<feGaussianBlur stdDeviation="80" result="effect1_foregroundBlur_212_16580"/>
</filter>
<clipPath id="clip0_212_16580">
<rect width="1362" height="544" fill="white" transform="translate(78)"/>
</clipPath>
</defs>
</svg>
